<svg xmlns="http://www.w3.org/2000/svg" width="32" height="32" viewBox="0 0 32 32">
  <defs>
    <linearGradient id="b" x1="0%" y1="0%" x2="100%" y2="100%">
      <stop offset="0%" stop-color="#f8fafc"/>
      <stop offset="26%" stop-color="#b4bccf"/>
      <stop offset="48%" stop-color="#64748b"/>
      <stop offset="70%" stop-color="#9aa5b8"/>
      <stop offset="100%" stop-color="#3f4f63"/>
    </linearGradient>
    <linearGradient id="h" x1="0%" y1="0%" x2="60%" y2="0%">
      <stop offset="0%" stop-color="#ffffff" stop-opacity="0.92"/>
      <stop offset="100%" stop-color="#ffffff" stop-opacity="0.06"/>
    </linearGradient>
  </defs>
  <path fill="#020617" opacity="0.5" d="M9.35 6.75 L9.35 25.75 L14.55 20.45 L18.35 29.75 L21.55 28.45 L17.75 19.05 L23.85 19.05 Z"/>
  <path fill="#050508" d="M8 5.5 L8 24.5 L13.2 19.2 L17 28.5 L20.2 27.2 L16.4 17.8 L22.5 17.8 Z"/>
  <path fill="url(#b)" stroke="#e8ecf4" stroke-width="0.9" stroke-linejoin="round" d="M8 6 L8 24 L13 19 L16.5 28 L20 26.5 L16.5 17 L22 17 Z"/>
  <path fill="url(#h)" d="M9.35 7.85 L9.35 21.2 L12.55 17.85 L15.1 25.2 L17.35 24.35 L14.35 15.85 L19.35 15.85 Z" opacity="0.48"/>
</svg>
